<?xml version="1.0" encoding="utf-8"?>
<svg version="1.1" id="Icons" xmlns="http://www.w3.org/2000/svg" xmlns:xlink="http://www.w3.org/1999/xlink" x="0px" y="0px"
	 viewBox="0 0 32 32" style="enable-background:new 0 0 32 32;" xml:space="preserve">
<style type="text/css">
	.st0{fill:none;stroke:#000000;stroke-width:2;stroke-linecap:round;stroke-linejoin:round;stroke-miterlimit:10;}
</style>
<line class="st0" x1="11" y1="9" x2="11" y2="11"/>
<line class="st0" x1="21" y1="9" x2="21" y2="11"/>
<line class="st0" x1="16" y1="8" x2="16" y2="10"/>
<path class="st0" d="M27.8,14C26.9,8.3,21.9,4,16,4S5.1,8.3,4.2,14H27.8z"/>
<path class="st0" d="M4,16l1.5,1c0.9,0.6,2.1,0.6,3,0l0,0c0.9-0.6,2.1-0.6,3,0l0,0c0.9,0.6,2.1,0.6,3,0l0,0c0.9-0.6,2.1-0.6,3,0l0,0
	c0.9,0.6,2.1,0.6,3,0l0,0c0.9-0.6,2.1-0.6,3,0l0,0c0.9,0.6,2.1,0.6,3,0l1.5-1"/>
<path class="st0" d="M27,24H5c-1.1,0-2-0.9-2-2v0c0-1.1,0.9-2,2-2h22c1.1,0,2,0.9,2,2v0C29,23.1,28.1,24,27,24z"/>
<path class="st0" d="M27,24v1.4c0,1.5-1.2,2.6-2.6,2.6H7.6C6.2,28,5,26.8,5,25.4V24"/>
</svg>
