<?xml version="1.0" standalone="no"?>
<!DOCTYPE svg PUBLIC "-//W3C//DTD SVG 20010904//EN"
 "http://www.w3.org/TR/2001/REC-SVG-20010904/DTD/svg10.dtd">
<svg version="1.0" xmlns="http://www.w3.org/2000/svg"
 width="700.000000pt" height="700.000000pt" viewBox="0 0 700.000000 700.000000"
 preserveAspectRatio="xMidYMid meet">
<metadata>
Created by potrace 1.14, written by Peter Selinger 2001-2017
</metadata>
<g transform="translate(0.000000,700.000000) scale(0.100000,-0.100000)"
fill="#000000" stroke="none">
<path d="M2430 6119 c-118 -11 -167 -19 -289 -45 -240 -53 -454 -139 -656
-263 -564 -345 -939 -917 -1029 -1571 -15 -106 -19 -180 -20 -382 l-1 -138
-75 -1 c-41 0 -85 -2 -98 -5 -105 -19 -215 -119 -247 -223 -47 -157 24 -321
172 -397 57 -28 62 -29 235 -32 l176 -4 -35 -46 c-104 -136 -148 -337 -113
-520 14 -76 64 -189 109 -249 41 -54 39 -63 -12 -63 -12 0 -60 -13 -106 -30
-269 -93 -447 -348 -440 -630 7 -297 185 -529 479 -624 l65 -21 2915 0 c1603
0 2942 3 2975 8 250 32 462 216 540 467 37 119 25 313 -26 435 -83 195 -279
355 -477 388 l-72 12 43 65 c61 92 99 189 114 290 5 37 4 151 -2 180 -13 69
-29 126 -41 149 -8 14 -14 30 -14 34 0 5 -21 41 -47 80 -27 40 -49 74 -50 77
-2 3 68 5 155 4 176 -1 229 9 300 58 91 63 141 163 138 278 -3 95 -37 172
-102 229 -72 63 -125 83 -234 87 l-95 4 -1 148 c-2 238 -14 362 -50 532 -136
651 -562 1200 -1162 1499 -228 114 -476 186 -753 217 -70 8 -2086 11 -2169 3z"/>
</g>
</svg>
